<?xml version="1.0" encoding="utf-8"?>
<!-- Generator: Adobe Illustrator 16.0.4, SVG Export Plug-In . SVG Version: 6.00 Build 0)  -->
<!DOCTYPE svg PUBLIC "-//W3C//DTD SVG 1.1//EN" "http://www.w3.org/Graphics/SVG/1.1/DTD/svg11.dtd">
<svg version="1.1" xmlns="http://www.w3.org/2000/svg" xmlns:xlink="http://www.w3.org/1999/xlink" x="0px" y="0px" width="735px"
	 height="208px" viewBox="0 0 735 208" enable-background="new 0 0 735 208" xml:space="preserve">
<g id="Layer_2">
	<rect display="none" fill-rule="evenodd" clip-rule="evenodd" fill="#AADDE1" width="735" height="208"/>
	<rect x="166" y="29.36" fill="none" width="525" height="63.64"/>
	<text transform="matrix(1 0 0 1 249.1572 76.98)" fill="#E4787D" font-family="'Luna'" font-size="32">SECURITY HEALTH</text>
	<rect x="281" y="89" fill="none" width="301" height="32.03"/>
	<text transform="matrix(1 0 0 1 397.5 112.8096)" fill="#2F2F2F" font-family="'Luna'" font-size="16">Level 1</text>
	<text transform="matrix(1 0 0 1 330.8633 125.5264)" fill="#CE6F77" font-family="'MyriadPro-Regular'" font-size="80.9995">~</text>
	<text transform="matrix(-1 0 0 1 529.1387 125.5264)" fill="#CE6F77" font-family="'MyriadPro-Regular'" font-size="80.9995">~</text>
	<rect x="19" y="16.934" fill="#F1AB56" stroke="#E4787C" stroke-width="9" stroke-miterlimit="10" width="122" height="173.132"/>
	<polygon fill="#AF7D46" points="23,186 42.511,160.928 123,160.928 137,186 	"/>
	
		<rect x="38.892" y="31" fill="#78C0E4" stroke="#8E8E8E" stroke-width="7" stroke-miterlimit="10" width="86.108" height="122.127"/>
	<line fill="#78C0E4" stroke="#8E8E8E" stroke-width="3" stroke-miterlimit="10" x1="38.892" y1="114.968" x2="125" y2="114.968"/>
	<line fill="#78C0E4" stroke="#8E8E8E" stroke-width="3" stroke-miterlimit="10" x1="38.892" y1="74.968" x2="125" y2="74.968"/>
	
		<line fill="#78C0E4" stroke="#8E8E8E" stroke-width="3" stroke-miterlimit="10" x1="64.946" y1="32.863" x2="64.946" y2="153.068"/>
	
		<line fill="#78C0E4" stroke="#8E8E8E" stroke-width="3" stroke-miterlimit="10" x1="100.946" y1="32.863" x2="100.946" y2="153.068"/>
	<rect x="154" y="14.934" fill-rule="evenodd" clip-rule="evenodd" fill="#E4787D" width="39" height="178.066"/>
	<rect x="669" y="14.934" fill-rule="evenodd" clip-rule="evenodd" fill="#E4787D" width="39" height="178.066"/>
	<rect x="154" y="14.934" fill-rule="evenodd" clip-rule="evenodd" fill="#CE6F77" width="12" height="178.066"/>
	<rect x="696" y="14.934" fill-rule="evenodd" clip-rule="evenodd" fill="#CE6F77" width="12" height="178.066"/>
</g>
<g id="Layer_3">
	<g>
		<path fill-rule="evenodd" clip-rule="evenodd" fill="#FFCE07" d="M319.566,276.989c8.598,0.684,16.443,3.543,23.672,8.186
			c1.48,0.375,2.8,1.028,3.841,2.182c0.836,0.764,1.607,1.565,1.498,2.828c-0.511,1.59-1.426,3.146-0.393,4.855
			c0.587,0.891,1.629,1.236,2.351,1.962c1.059,3.584,2.172-0.089,3.254,0.021c0.213-0.039,0.427-0.074,0.641-0.11
			c2.581,2.546,4.053,5.72,5.164,9.099c-1.539,1.78-3.643,1.47-5.573,1.304c-13.528-1.163-25.265,2.665-34.987,12.293
			c-0.829,0.821-1.732,1.558-2.851,1.962c-1.773,0.463-2.758-0.789-3.796-1.824c-3.703-3.69-7.449-7.338-10.733-10.761
			c3.927,4.435,8.952,8.493,13.006,13.487c0.073,0.513,0.023,1.007-0.138,1.496c-3.767,6.814-7.381,13.571-8.31,21.604
			c-0.707,6.109,0.211,11.83,1.594,17.633c0.478,2.005,1.959,3.979,0.362,6.117c-6.687-0.682-12.615-3.221-17.913-7.309
			c-0.683-1.134,1.012-2.514-0.383-3.566c-0.942-0.763-1.586-1.842-2.689-2.422c-1.316-0.658-2.533-0.281-3.729,0.324
			c-1.938,0.346-2.65-1.105-3.489-2.379c-0.316-0.564-0.337-1.227-0.594-1.812c-4.811-6.541-7.638-13.924-9.254-21.82
			c-0.338-0.516-0.637-1.055-0.899-1.613c-0.62-3.37-1.051-6.725,0.894-9.863c0.808-6.689,2.63-13.035,6.372-18.729
			c1.351-0.96,1.908-0.059,2.39,0.99c1.37,1.307,0.712-0.778,1.279-0.809c0.403-0.83,0.924-1.553,1.66-2.105
			c3.868-2.149,6.547-5.579,9.503-8.729c1.553-1.654,1.561-3.572,1.517-5.579c4.419-3.39,9.521-5.046,14.944-5.89
			C311.461,274.854,315.425,274.895,319.566,276.989z"/>
		<path fill-rule="evenodd" clip-rule="evenodd" fill="#FFDE00" d="M308.168,369.321c-0.657-4.568-2.587-8.764-3.189-13.45
			c-1.594-12.401,1.834-23.054,9.244-32.745c2.078-0.443,2.809,1.337,3.906,2.432c4.701,4.689,9.384,9.396,14.248,14.231
			c-0.258-0.474-0.565-0.581-0.776-0.792c-5.524-5.521-11.042-11.051-16.503-16.637c-0.277-0.443-0.234-0.854,0.128-1.23
			c7.166-7.065,15.208-12.557,25.293-14.645c6.356-1.316,12.727-0.022,19.076-0.474c2.171,3.079,1.873,7.037,3.643,10.26
			c2.277,3.96,2.114,7.931,0.055,11.91c-1.161,7.948-3.518,15.452-8.225,22.076c-0.596,0.839-1.073,1.671-0.828,2.743
			c-0.07,0.716-0.41,1.295-0.902,1.799c-2.459,1.902-3.885,5.033-7.118,6.023c-0.881-0.001-1.689,0.145-2.121,1.051
			c-1.442,2.877-4.133,3.672-6.99,4.189c-4.888,1.556-9.657,3.537-14.813,4.133c-4.022,2.111-8.042,2.185-12.058-0.02
			C309.547,369.892,308.858,369.606,308.168,369.321z"/>
		<path fill-rule="evenodd" clip-rule="evenodd" fill="#E7B323" d="M278.103,296.188c-3.797-3.682-7.64-7.318-11.375-11.062
			c-2.564-2.57-3.125-5.638-0.553-8.37c2.732-2.9,6.016-2.553,8.805,0.071c3.861,3.634,7.521,7.481,11.268,11.237
			c0.131,3.293-3.417,4.072-4.466,6.564C280.711,295.513,279.85,296.905,278.103,296.188z"/>
		<path fill-rule="evenodd" clip-rule="evenodd" fill="#E7B423" d="M310.237,370.177c4.02,0.006,8.04,0.013,12.059,0.02
			c-0.026,4.665-0.072,9.33-0.073,13.995c-0.001,3.872-1.7,6.438-5.671,6.874c-3.457,0.379-6.095-2.567-6.227-6.893
			C310.183,379.511,310.257,374.843,310.237,370.177z"/>
		<path fill-rule="evenodd" clip-rule="evenodd" fill="#E7B423" d="M280.218,353.134c0.98,1.006,1.96,2.013,2.94,3.019
			c1.423,0.156,2.233,1.228,3.173,2.109c0.455,0.464,0.848,0.975,1.138,1.56c0.145,0.436,0.056,0.82-0.263,1.152
			c-3.455,3.566-6.854,7.19-10.383,10.682c-2.748,2.719-5.898,3.234-8.742,0.312c-2.833-2.912-2.21-6.016,0.519-8.732
			c2.808-2.795,5.712-5.494,8.574-8.234c0.694,1.478,1.242,2.994,1.232,3.473C278.31,357.292,276.704,354.495,280.218,353.134z"/>
		<path fill-rule="evenodd" clip-rule="evenodd" fill="#E7B423" d="M363.291,328.182c-0.019-3.97-0.036-7.94-0.056-11.91
			c4.32-0.022,8.643-0.138,12.959-0.041c3.608,0.081,6.137,1.817,6.269,5.643c0.141,4.073-2.376,6.048-6.213,6.209
			C371.937,328.263,367.611,328.161,363.291,328.182z"/>
		<path fill-rule="evenodd" clip-rule="evenodd" fill="#E7B322" d="M270.111,318.86c0.026,3.424,0.053,6.846,0.08,10.27
			c-3.907,1.316-8.055-0.36-11.961,0.959c-1.314,0.073-2.633,0.099-3.941,0.23c-3.468,0.35-5.867-1.166-6.727-4.439
			c-0.827-3.146,0.808-5.31,3.709-6.557c2.655,0.441,5.306,0.68,7.935-0.164c0.676,0.005,1.352,0.01,2.028,0.014
			c2.659,0.753,5.317,0.773,7.973-0.014C269.488,318.997,269.789,318.897,270.111,318.86z"/>
		<path fill-rule="evenodd" clip-rule="evenodd" fill="#E7B322" d="M319.566,276.989c-3.92,0.451-7.962-0.492-11.791,1.021
			c0.169-2.637,0.338-5.272,0.507-7.908c0.777-3.309,0.65-6.625,0.08-9.944c0.87-4.047,3.855-4.833,7.149-3.952
			c4.752,1.27,4.118,5.246,3.728,8.914c-0.847,3.672-0.87,7.342,0.017,11.012C319.436,276.39,319.54,276.675,319.566,276.989z"/>
		<path fill-rule="evenodd" clip-rule="evenodd" fill="#E7B323" d="M346.218,288.122c-0.993-0.982-1.987-1.965-2.98-2.947
			c3.423-3.392,6.829-6.802,10.276-10.169c2.684-2.622,5.755-2.919,8.355-0.268c2.55,2.601,2.38,5.738-0.181,8.44
			c-1.699,1.795-3.598,3.401-5.407,5.092C352.918,288.803,349.599,286.342,346.218,288.122z"/>
		<path fill-rule="evenodd" clip-rule="evenodd" fill="#E7B323" d="M355.279,353.949c2.735,2.63,5.539,5.192,8.187,7.907
			c2.582,2.649,2.787,5.664,0.228,8.365c-2.631,2.775-5.604,2.537-8.284-0.09c-2.596-2.543-5.072-5.207-7.601-7.818
			c1.003-2.602,3.465-4.075,4.894-6.348C353.52,355.243,354.299,354.467,355.279,353.949z"/>
		<path fill-rule="evenodd" clip-rule="evenodd" fill="#F8CD14" d="M281.191,294.097c0.623-2.902,3.638-3.798,5.057-6.031
			c2.229-1.334,3.912-3.531,6.583-4.165c1.994,1.513,2.043,3.734,0.589,5.137c-3.61,3.483-6.22,8.128-11.201,10.087
			C280.773,297.675,282.12,295.653,281.191,294.097z"/>
		<path fill-rule="evenodd" clip-rule="evenodd" fill="#E6B323" d="M346.218,288.122c3.426-4.816,6.719-0.593,10.064,0.148
			c-1.402,1.592-2.804,3.182-4.206,4.773c-2.099,0.076-2.796-1.659-3.827-2.964C347.572,289.428,346.895,288.774,346.218,288.122z"
			/>
		<path fill-rule="evenodd" clip-rule="evenodd" fill="#F8CA15" d="M281.191,294.097c5.158,0.691-0.317,3.557,1.028,5.027
			c-0.81,0.428-0.982,1.176-1.002,2c-0.961,0.449-1.68,1.629-3,0.993c-0.026-1.144-0.514-1.884-1.734-1.985
			c0.54-1.314,1.08-2.629,1.62-3.943C279.132,295.491,280.162,294.794,281.191,294.097z"/>
		<path fill-rule="evenodd" clip-rule="evenodd" fill="#FFD930" d="M348.25,290.08c2.128-0.113,2.626,1.879,3.827,2.964
			c0.107,0.33,0.214,0.659,0.321,0.988c-0.133,0.754-0.514,1.359-1.093,1.85c-1.324,0.732-2.669,1.146-4.086,0.225
			C346.056,293.841,345.356,291.653,348.25,290.08z"/>
		<path fill-rule="evenodd" clip-rule="evenodd" fill="#E5B423" d="M353.222,356.122c-0.604,3.114-3.03,4.633-5.414,6.191
			c-0.53-0.496-1.059-0.992-1.589-1.489c2.071-2.514,3.872-5.306,6.969-6.763C353.75,354.739,353.821,355.426,353.222,356.122z"/>
		<path fill-rule="evenodd" clip-rule="evenodd" fill="#E5BA24" d="M280.218,353.134c-3.059,2.882-0.594,6.029-0.333,9.613
			c-3.628-1.984-1.868-5.338-2.711-7.746c0.732-0.947,1.465-1.896,2.197-2.844C279.653,352.483,279.936,352.808,280.218,353.134z"/>
		<path fill-rule="evenodd" clip-rule="evenodd" fill="#FED936" d="M287.207,360.974c-0.018-0.288-0.019-0.576-0.002-0.864
			c0.695-1.128,1.256-2.456,3.005-2.006c0.737-0.179,1.519-0.952,2.211-0.067c0.711,0.91-0.176,1.439-0.666,2.043
			c-0.513,0.635-1,1.289-1.499,1.934C289.239,361.667,288.223,361.319,287.207,360.974z"/>
		<path fill-rule="evenodd" clip-rule="evenodd" fill="#E6AE23" d="M258.229,330.089c3.852-2.01,7.988-0.477,11.962-0.96
			c-0.025,0.403-0.05,0.806-0.075,1.208C266.154,330.254,262.192,330.171,258.229,330.089z"/>
		<path fill-rule="evenodd" clip-rule="evenodd" fill="#E6AE23" d="M319.255,276.132c-1.689-3.668-1.663-7.338-0.017-11.012
			C319.244,268.79,319.25,272.461,319.255,276.132z"/>
		<path fill-rule="evenodd" clip-rule="evenodd" fill="#E6AE23" d="M308.362,260.158c1.342,3.325,1.466,6.642-0.08,9.944
			C308.309,266.788,308.335,263.474,308.362,260.158z"/>
		<path fill-rule="evenodd" clip-rule="evenodd" fill="#E7AF23" d="M269.207,319.159c-2.655,1.498-5.313,1.482-7.973,0.014
			C263.892,319.169,266.549,319.164,269.207,319.159z"/>
		<path fill-rule="evenodd" clip-rule="evenodd" fill="#E7AE23" d="M259.206,319.159c-2.613,1.589-5.264,1.373-7.935,0.164
			C253.905,318.729,256.554,318.842,259.206,319.159z"/>
		<path fill-rule="evenodd" clip-rule="evenodd" fill="#E1B026" d="M353.222,356.122c-0.011-0.686-0.022-1.372-0.034-2.059
			c0.351-0.354,0.701-0.708,1.051-1.062c0.346,0.316,0.693,0.633,1.04,0.948C355.212,355.259,354.625,356.077,353.222,356.122z"/>
		<path fill-rule="evenodd" clip-rule="evenodd" fill="#FCD415" d="M351.207,295.11c0.397-0.359,0.793-0.719,1.19-1.078
			c1.086,0.672,1.651,1.711,2.032,2.88l-0.24,0.241c-0.859,0.459-1.514,0.009-2.163-0.48
			C351.581,296.243,351.258,295.747,351.207,295.11z"/>
		<path fill-rule="evenodd" clip-rule="evenodd" fill="#FDE100" d="M315.212,322.121c7.307,5.904,13.231,13.177,19.244,20.411
			c-6.745-6.469-13.489-12.938-20.233-19.406c-0.001-0.333,0-0.666,0.002-0.999C314.552,321.706,314.88,321.685,315.212,322.121z"/>
		<path fill-rule="evenodd" clip-rule="evenodd" fill="#FDD106" d="M315.212,322.121c-0.329,0.002-0.659,0.004-0.987,0.006
			c-5.055-5.51-10.109-11.021-13.902-15.155c4.064,3.861,9.483,9.01,14.902,14.158C315.22,321.46,315.216,321.79,315.212,322.121z"
			/>
		<path fill-rule="evenodd" clip-rule="evenodd" fill="#FFD932" d="M286.212,359.169c-1.352-0.668-2.344-1.698-3.052-3.017
			c1.029-3.562,3.17-1.659,5.053-1.028C289.025,357.204,289.189,358.964,286.212,359.169z"/>
		<path fill-rule="evenodd" clip-rule="evenodd" fill="#FFDA30" d="M352.221,296.127c0.657,0.342,1.313,0.684,1.97,1.025
			c-0.84,1.404-1.758,3.199-3.442,3.043c-1.052-0.099-0.346-1.985-0.509-3.058C350.692,296.395,351.406,296.161,352.221,296.127z"/>
		<path fill-rule="evenodd" clip-rule="evenodd" fill="#F4C517" d="M286.212,359.169c1.803-0.786,2.121-2.307,2-4.045
			c0.666,0.994,1.331,1.986,1.997,2.979c-1.022,0.638-1.451,2.165-3.005,2.007C286.874,359.796,286.542,359.482,286.212,359.169z"/>
		<path fill-rule="evenodd" clip-rule="evenodd" fill="#F5C817" d="M352.221,296.127c-0.43,0.789-1.166,0.978-1.982,1.011
			c-1.104-0.057-2.309,0.178-3.021-1.031c1.457,0.178,2.755-0.278,3.989-0.995C351.545,295.45,351.883,295.788,352.221,296.127z"/>
		<path fill-rule="evenodd" clip-rule="evenodd" fill="#FAD113" d="M278.217,302.117c1-0.331,2-0.662,3-0.993
			c-0.75,1.211-1.402,2.748-3.069,2.594C277.41,303.649,278.148,302.679,278.217,302.117z"/>
		<path fill-rule="evenodd" clip-rule="evenodd" fill="#FED722" d="M341.34,293.462c1.236,1.557,0.712,2.59,0.846,4.088
			C340.676,296.09,341.48,295.048,341.34,293.462z"/>
		<path fill-rule="evenodd" clip-rule="evenodd" fill="#F6CA15" d="M285.757,349.394c-0.292,0.083-0.781,0.391-1.056,0.258
			c-0.334-0.162-0.489-0.696-0.721-1.07c0.295-0.115,0.597-0.342,0.883-0.324C285.377,348.288,285.823,348.526,285.757,349.394z"/>
	</g>
</g>
<g id="Layer_4">
	<g>
		<path fill-rule="evenodd" clip-rule="evenodd" fill="#E7B323" d="M247.258,142.727l0.183-8.793c0,0,0.122-1.766,2.111-1.723
			c0,0,1.693,0.006,1.886,1.54v8.976H247.258z"/>
		<path fill-rule="evenodd" clip-rule="evenodd" fill="#E7B323" d="M251.438,171.104l-0.183,8.793c0,0-0.122,1.766-2.111,1.723
			c0,0-1.693-0.006-1.886-1.54v-8.976H251.438z"/>
		<path fill-rule="evenodd" clip-rule="evenodd" fill="#E7B323" d="M263.536,154.825l8.793,0.183c0,0,1.766,0.122,1.723,2.111
			c0,0-0.006,1.692-1.54,1.886h-8.976V154.825z"/>
		<path fill-rule="evenodd" clip-rule="evenodd" fill="#E7B323" d="M235.159,159.005l-8.793-0.183c0,0-1.766-0.122-1.723-2.111
			c0,0,0.006-1.692,1.54-1.886h8.976V159.005z"/>
		<path fill-rule="evenodd" clip-rule="evenodd" fill="#E7B323" d="M257.903,145.404l6.346-6.088c0,0,1.335-1.163,2.711,0.273
			c0,0,1.192,1.202,0.245,2.423l-6.347,6.348L257.903,145.404z"/>
		<path fill-rule="evenodd" clip-rule="evenodd" fill="#E7B323" d="M240.792,168.426l-6.346,6.088c0,0-1.335,1.163-2.711-0.273
			c0,0-1.192-1.202-0.245-2.423l6.347-6.348L240.792,168.426z"/>
		<path fill-rule="evenodd" clip-rule="evenodd" fill="#E7B323" d="M260.858,165.47l6.088,6.347c0,0,1.163,1.335-0.274,2.711
			c0,0-1.202,1.193-2.423,0.245l-6.347-6.347L260.858,165.47z"/>
		<path fill-rule="evenodd" clip-rule="evenodd" fill="#E7B323" d="M237.837,148.36l-6.088-6.347c0,0-1.163-1.335,0.274-2.711
			c0,0,1.202-1.193,2.423-0.245l6.347,6.347L237.837,148.36z"/>
		<circle fill-rule="evenodd" clip-rule="evenodd" fill="#FFCE07" cx="249.941" cy="156.788" r="17.395"/>
		<path fill-rule="evenodd" clip-rule="evenodd" fill="#FFDE00" d="M263.56,145.973c0,0,7.749,9.037,1.301,19.762
			c-6.448,10.725,0.15-0.258,0.15-0.258s-4.5,9.778-16.758,8.625c0,0-2.756-10.78,1.337-17.313
			C249.59,156.788,254.783,147.238,263.56,145.973z"/>
	</g>
	<g opacity="0.25">
		<path fill-rule="evenodd" clip-rule="evenodd" fill="#E7B323" d="M307.258,142.727l0.183-8.793c0,0,0.122-1.766,2.111-1.723
			c0,0,1.693,0.006,1.886,1.54v8.976H307.258z"/>
		<path fill-rule="evenodd" clip-rule="evenodd" fill="#E7B323" d="M311.438,171.104l-0.183,8.793c0,0-0.122,1.766-2.111,1.723
			c0,0-1.693-0.006-1.886-1.54v-8.976H311.438z"/>
		<path fill-rule="evenodd" clip-rule="evenodd" fill="#E7B323" d="M323.536,154.825l8.793,0.183c0,0,1.766,0.122,1.723,2.111
			c0,0-0.006,1.692-1.54,1.886h-8.976V154.825z"/>
		<path fill-rule="evenodd" clip-rule="evenodd" fill="#E7B323" d="M295.159,159.005l-8.793-0.183c0,0-1.766-0.122-1.723-2.111
			c0,0,0.006-1.692,1.54-1.886h8.976V159.005z"/>
		<path fill-rule="evenodd" clip-rule="evenodd" fill="#E7B323" d="M317.903,145.404l6.346-6.088c0,0,1.335-1.163,2.711,0.273
			c0,0,1.192,1.202,0.245,2.423l-6.347,6.348L317.903,145.404z"/>
		<path fill-rule="evenodd" clip-rule="evenodd" fill="#E7B323" d="M300.792,168.426l-6.346,6.088c0,0-1.335,1.163-2.711-0.273
			c0,0-1.192-1.202-0.245-2.423l6.347-6.348L300.792,168.426z"/>
		<path fill-rule="evenodd" clip-rule="evenodd" fill="#E7B323" d="M320.858,165.47l6.088,6.347c0,0,1.163,1.335-0.274,2.711
			c0,0-1.202,1.193-2.423,0.245l-6.347-6.347L320.858,165.47z"/>
		<path fill-rule="evenodd" clip-rule="evenodd" fill="#E7B323" d="M297.837,148.36l-6.088-6.347c0,0-1.163-1.335,0.274-2.711
			c0,0,1.202-1.193,2.423-0.245l6.347,6.347L297.837,148.36z"/>
		<circle fill-rule="evenodd" clip-rule="evenodd" fill="#FFCE07" cx="309.941" cy="156.788" r="17.395"/>
		<path fill-rule="evenodd" clip-rule="evenodd" fill="#FFDE00" d="M323.56,145.973c0,0,7.749,9.037,1.301,19.762
			c-6.448,10.725,0.15-0.258,0.15-0.258s-4.5,9.778-16.758,8.625c0,0-2.756-10.78,1.337-17.313
			C309.59,156.788,314.783,147.238,323.56,145.973z"/>
	</g>
	<g opacity="0.25">
		<path fill-rule="evenodd" clip-rule="evenodd" fill="#E7B323" d="M367.258,142.727l0.183-8.793c0,0,0.122-1.766,2.111-1.723
			c0,0,1.693,0.006,1.886,1.54v8.976H367.258z"/>
		<path fill-rule="evenodd" clip-rule="evenodd" fill="#E7B323" d="M371.438,171.104l-0.183,8.793c0,0-0.122,1.766-2.111,1.723
			c0,0-1.693-0.006-1.886-1.54v-8.976H371.438z"/>
		<path fill-rule="evenodd" clip-rule="evenodd" fill="#E7B323" d="M383.536,154.825l8.793,0.183c0,0,1.766,0.122,1.724,2.111
			c0,0-0.007,1.692-1.541,1.886h-8.976V154.825z"/>
		<path fill-rule="evenodd" clip-rule="evenodd" fill="#E7B323" d="M355.159,159.005l-8.793-0.183c0,0-1.766-0.122-1.723-2.111
			c0,0,0.006-1.692,1.54-1.886h8.976V159.005z"/>
		<path fill-rule="evenodd" clip-rule="evenodd" fill="#E7B323" d="M377.903,145.404l6.346-6.088c0,0,1.335-1.163,2.711,0.273
			c0,0,1.192,1.202,0.245,2.423l-6.347,6.348L377.903,145.404z"/>
		<path fill-rule="evenodd" clip-rule="evenodd" fill="#E7B323" d="M360.792,168.426l-6.346,6.088c0,0-1.335,1.163-2.711-0.273
			c0,0-1.192-1.202-0.245-2.423l6.347-6.348L360.792,168.426z"/>
		<path fill-rule="evenodd" clip-rule="evenodd" fill="#E7B323" d="M380.858,165.47l6.088,6.347c0,0,1.163,1.335-0.274,2.711
			c0,0-1.202,1.193-2.423,0.245l-6.347-6.347L380.858,165.47z"/>
		<path fill-rule="evenodd" clip-rule="evenodd" fill="#E7B323" d="M357.837,148.36l-6.088-6.347c0,0-1.163-1.335,0.274-2.711
			c0,0,1.202-1.193,2.423-0.245l6.347,6.347L357.837,148.36z"/>
		<circle fill-rule="evenodd" clip-rule="evenodd" fill="#FFCE07" cx="369.941" cy="156.788" r="17.395"/>
		<path fill-rule="evenodd" clip-rule="evenodd" fill="#FFDE00" d="M383.56,145.973c0,0,7.749,9.037,1.301,19.762
			c-6.448,10.725,0.15-0.258,0.15-0.258s-4.5,9.778-16.758,8.625c0,0-2.756-10.78,1.337-17.313
			C369.59,156.788,374.783,147.238,383.56,145.973z"/>
	</g>
	<g opacity="0.25">
		<path fill-rule="evenodd" clip-rule="evenodd" fill="#E7B323" d="M427.258,142.727l0.183-8.793c0,0,0.122-1.766,2.11-1.723
			c0,0,1.693,0.006,1.887,1.54v8.976H427.258z"/>
		<path fill-rule="evenodd" clip-rule="evenodd" fill="#E7B323" d="M431.438,171.104l-0.183,8.793c0,0-0.122,1.766-2.11,1.723
			c0,0-1.693-0.006-1.887-1.54v-8.976H431.438z"/>
		<path fill-rule="evenodd" clip-rule="evenodd" fill="#E7B323" d="M443.536,154.825l8.793,0.183c0,0,1.766,0.122,1.724,2.111
			c0,0-0.007,1.692-1.541,1.886h-8.976V154.825z"/>
		<path fill-rule="evenodd" clip-rule="evenodd" fill="#E7B323" d="M415.159,159.005l-8.793-0.183c0,0-1.766-0.122-1.724-2.111
			c0,0,0.007-1.692,1.541-1.886h8.976V159.005z"/>
		<path fill-rule="evenodd" clip-rule="evenodd" fill="#E7B323" d="M437.902,145.404l6.347-6.088c0,0,1.335-1.163,2.712,0.273
			c0,0,1.191,1.202,0.244,2.423l-6.348,6.348L437.902,145.404z"/>
		<path fill-rule="evenodd" clip-rule="evenodd" fill="#E7B323" d="M420.793,168.426l-6.347,6.088c0,0-1.335,1.163-2.712-0.273
			c0,0-1.191-1.202-0.244-2.423l6.348-6.348L420.793,168.426z"/>
		<path fill-rule="evenodd" clip-rule="evenodd" fill="#E7B323" d="M440.857,165.47l6.089,6.347c0,0,1.163,1.335-0.274,2.711
			c0,0-1.201,1.193-2.422,0.245l-6.348-6.347L440.857,165.47z"/>
		<path fill-rule="evenodd" clip-rule="evenodd" fill="#E7B323" d="M417.838,148.36l-6.089-6.347c0,0-1.163-1.335,0.274-2.711
			c0,0,1.201-1.193,2.422-0.245l6.348,6.347L417.838,148.36z"/>
		<circle fill-rule="evenodd" clip-rule="evenodd" fill="#FFCE07" cx="429.941" cy="156.788" r="17.395"/>
		<path fill-rule="evenodd" clip-rule="evenodd" fill="#FFDE00" d="M443.561,145.973c0,0,7.748,9.037,1.301,19.762
			c-6.449,10.725,0.149-0.258,0.149-0.258s-4.501,9.778-16.759,8.625c0,0-2.756-10.78,1.338-17.313
			C429.59,156.788,434.783,147.238,443.561,145.973z"/>
	</g>
	<g opacity="0.25">
		<path fill-rule="evenodd" clip-rule="evenodd" fill="#E7B323" d="M487.258,142.727l0.183-8.793c0,0,0.122-1.766,2.11-1.723
			c0,0,1.693,0.006,1.887,1.54v8.976H487.258z"/>
		<path fill-rule="evenodd" clip-rule="evenodd" fill="#E7B323" d="M491.438,171.104l-0.183,8.793c0,0-0.122,1.766-2.11,1.723
			c0,0-1.693-0.006-1.887-1.54v-8.976H491.438z"/>
		<path fill-rule="evenodd" clip-rule="evenodd" fill="#E7B323" d="M503.536,154.825l8.793,0.183c0,0,1.766,0.122,1.724,2.111
			c0,0-0.007,1.692-1.541,1.886h-8.976V154.825z"/>
		<path fill-rule="evenodd" clip-rule="evenodd" fill="#E7B323" d="M475.159,159.005l-8.793-0.183c0,0-1.766-0.122-1.724-2.111
			c0,0,0.007-1.692,1.541-1.886h8.976V159.005z"/>
		<path fill-rule="evenodd" clip-rule="evenodd" fill="#E7B323" d="M497.902,145.404l6.347-6.088c0,0,1.335-1.163,2.712,0.273
			c0,0,1.191,1.202,0.244,2.423l-6.348,6.348L497.902,145.404z"/>
		<path fill-rule="evenodd" clip-rule="evenodd" fill="#E7B323" d="M480.793,168.426l-6.347,6.088c0,0-1.335,1.163-2.712-0.273
			c0,0-1.191-1.202-0.244-2.423l6.348-6.348L480.793,168.426z"/>
		<path fill-rule="evenodd" clip-rule="evenodd" fill="#E7B323" d="M500.857,165.47l6.089,6.347c0,0,1.163,1.335-0.274,2.711
			c0,0-1.201,1.193-2.422,0.245l-6.348-6.347L500.857,165.47z"/>
		<path fill-rule="evenodd" clip-rule="evenodd" fill="#E7B323" d="M477.838,148.36l-6.089-6.347c0,0-1.163-1.335,0.274-2.711
			c0,0,1.201-1.193,2.422-0.245l6.348,6.347L477.838,148.36z"/>
		<circle fill-rule="evenodd" clip-rule="evenodd" fill="#FFCE07" cx="489.941" cy="156.788" r="17.395"/>
		<path fill-rule="evenodd" clip-rule="evenodd" fill="#FFDE00" d="M503.561,145.973c0,0,7.748,9.037,1.301,19.762
			c-6.449,10.725,0.149-0.258,0.149-0.258s-4.501,9.778-16.759,8.625c0,0-2.756-10.78,1.338-17.313
			C489.59,156.788,494.783,147.238,503.561,145.973z"/>
	</g>
	<g opacity="0.25">
		<path fill-rule="evenodd" clip-rule="evenodd" fill="#E7B323" d="M547.258,142.727l0.183-8.793c0,0,0.122-1.766,2.11-1.723
			c0,0,1.693,0.006,1.887,1.54v8.976H547.258z"/>
		<path fill-rule="evenodd" clip-rule="evenodd" fill="#E7B323" d="M551.438,171.104l-0.183,8.793c0,0-0.122,1.766-2.11,1.723
			c0,0-1.693-0.006-1.887-1.54v-8.976H551.438z"/>
		<path fill-rule="evenodd" clip-rule="evenodd" fill="#E7B323" d="M563.536,154.825l8.793,0.183c0,0,1.766,0.122,1.724,2.111
			c0,0-0.007,1.692-1.541,1.886h-8.976V154.825z"/>
		<path fill-rule="evenodd" clip-rule="evenodd" fill="#E7B323" d="M535.159,159.005l-8.793-0.183c0,0-1.766-0.122-1.724-2.111
			c0,0,0.007-1.692,1.541-1.886h8.976V159.005z"/>
		<path fill-rule="evenodd" clip-rule="evenodd" fill="#E7B323" d="M557.902,145.404l6.347-6.088c0,0,1.335-1.163,2.712,0.273
			c0,0,1.191,1.202,0.244,2.423l-6.348,6.348L557.902,145.404z"/>
		<path fill-rule="evenodd" clip-rule="evenodd" fill="#E7B323" d="M540.793,168.426l-6.347,6.088c0,0-1.335,1.163-2.712-0.273
			c0,0-1.191-1.202-0.244-2.423l6.348-6.348L540.793,168.426z"/>
		<path fill-rule="evenodd" clip-rule="evenodd" fill="#E7B323" d="M560.857,165.47l6.089,6.347c0,0,1.163,1.335-0.274,2.711
			c0,0-1.201,1.193-2.422,0.245l-6.348-6.347L560.857,165.47z"/>
		<path fill-rule="evenodd" clip-rule="evenodd" fill="#E7B323" d="M537.838,148.36l-6.089-6.347c0,0-1.163-1.335,0.274-2.711
			c0,0,1.201-1.193,2.422-0.245l6.348,6.347L537.838,148.36z"/>
		<circle fill-rule="evenodd" clip-rule="evenodd" fill="#FFCE07" cx="549.941" cy="156.788" r="17.395"/>
		<path fill-rule="evenodd" clip-rule="evenodd" fill="#FFDE00" d="M563.561,145.973c0,0,7.748,9.037,1.301,19.762
			c-6.449,10.725,0.149-0.258,0.149-0.258s-4.501,9.778-16.759,8.625c0,0-2.756-10.78,1.338-17.313
			C549.59,156.788,554.783,147.238,563.561,145.973z"/>
	</g>
	<g opacity="0.25">
		<path fill-rule="evenodd" clip-rule="evenodd" fill="#E7B323" d="M607.258,142.727l0.183-8.793c0,0,0.122-1.766,2.11-1.723
			c0,0,1.693,0.006,1.887,1.54v8.976H607.258z"/>
		<path fill-rule="evenodd" clip-rule="evenodd" fill="#E7B323" d="M611.438,171.104l-0.183,8.793c0,0-0.122,1.766-2.11,1.723
			c0,0-1.693-0.006-1.887-1.54v-8.976H611.438z"/>
		<path fill-rule="evenodd" clip-rule="evenodd" fill="#E7B323" d="M623.536,154.825l8.793,0.183c0,0,1.766,0.122,1.724,2.111
			c0,0-0.007,1.692-1.541,1.886h-8.976V154.825z"/>
		<path fill-rule="evenodd" clip-rule="evenodd" fill="#E7B323" d="M595.159,159.005l-8.793-0.183c0,0-1.766-0.122-1.724-2.111
			c0,0,0.007-1.692,1.541-1.886h8.976V159.005z"/>
		<path fill-rule="evenodd" clip-rule="evenodd" fill="#E7B323" d="M617.902,145.404l6.347-6.088c0,0,1.335-1.163,2.712,0.273
			c0,0,1.191,1.202,0.244,2.423l-6.348,6.348L617.902,145.404z"/>
		<path fill-rule="evenodd" clip-rule="evenodd" fill="#E7B323" d="M600.793,168.426l-6.347,6.088c0,0-1.335,1.163-2.712-0.273
			c0,0-1.191-1.202-0.244-2.423l6.348-6.348L600.793,168.426z"/>
		<path fill-rule="evenodd" clip-rule="evenodd" fill="#E7B323" d="M620.857,165.47l6.089,6.347c0,0,1.163,1.335-0.274,2.711
			c0,0-1.201,1.193-2.422,0.245l-6.348-6.347L620.857,165.47z"/>
		<path fill-rule="evenodd" clip-rule="evenodd" fill="#E7B323" d="M597.838,148.36l-6.089-6.347c0,0-1.163-1.335,0.274-2.711
			c0,0,1.201-1.193,2.422-0.245l6.348,6.347L597.838,148.36z"/>
		<circle fill-rule="evenodd" clip-rule="evenodd" fill="#FFCE07" cx="609.941" cy="156.788" r="17.395"/>
		<path fill-rule="evenodd" clip-rule="evenodd" fill="#FFDE00" d="M623.561,145.973c0,0,7.748,9.037,1.301,19.762
			c-6.449,10.725,0.149-0.258,0.149-0.258s-4.501,9.778-16.759,8.625c0,0-2.756-10.78,1.338-17.313
			C609.59,156.788,614.783,147.238,623.561,145.973z"/>
	</g>
	<rect x="14.5" y="190" fill-rule="evenodd" clip-rule="evenodd" fill="#CE6F77" width="131.031" height="7"/>
	<rect x="14.5" y="10" fill-rule="evenodd" clip-rule="evenodd" fill="#CE6F77" width="131.031" height="7"/>
	<rect x="11.516" y="10" fill-rule="evenodd" clip-rule="evenodd" fill="#CE6F77" width="7" height="187.016"/>
	<rect x="141.516" y="10" fill-rule="evenodd" clip-rule="evenodd" fill="#CE6F77" width="7" height="187.016"/>
	<g>
		<g>
			<path fill="#30231A" d="M63.166,153.188c0,0-3.4-5.242-1.733-10c0,0,20.519-13.005,46.734-1.399c0,0,2.066,3.866,0.199,9.199
				C108.365,150.987,84.232,145.721,63.166,153.188z"/>
			<path fill="#2F2F2F" d="M63.042,153.55l-0.129-0.199c-0.035-0.055-0.878-1.364-1.524-3.283c-0.86-2.557-0.944-4.97-0.24-6.979
				l0.034-0.099l0.089-0.056c0.099-0.062,10.055-6.265,24.693-6.265c7.551,0,15.062,1.629,22.322,4.844l0.094,0.042l0.049,0.091
				c0.088,0.162,2.107,4.045,0.219,9.44l-0.088,0.25l-0.26-0.056c-0.082-0.019-8.363-1.797-19.277-1.797
				c-9.628,0-18.294,1.341-25.757,3.986L63.042,153.55z M61.681,143.387c-1.346,4.028,1.036,8.453,1.614,9.438
				c7.476-2.614,16.13-3.94,25.728-3.94c9.893,0,17.643,1.455,19.143,1.757c1.508-4.577,0.055-8.032-0.223-8.623
				c-7.15-3.15-14.545-4.748-21.979-4.748C72.229,137.27,62.692,142.778,61.681,143.387z"/>
		</g>
		<path fill="#775335" d="M62.833,145.649c25.333-14.533,43.599-0.934,43.599-0.934c-23.6,11.2-43.599,1.601-43.599,1.601"/>
		<g>
			<g>
				<path fill-rule="evenodd" clip-rule="evenodd" fill="#C47881" d="M92.924,112.297c5.533,5.104,7.029,11.136,4.543,18.154
					c0.92,0.554,1.861,1.121,2.84,1.709c1.547-1.51,3.336-2.445,5.48-1.238c1.535,0.864,2.082,2.372,1.951,4.104
					c-0.125,1.658-0.898,2.555-2.738,3.207c0.381,1.084,0.209,2.097-0.561,2.961c-0.775,0.87-1.787,1.324-2.938,1.377
					c-2.354,0.106-4.459-1.823-4.334-3.989c0.037-0.621,0.281-1.229,0.453-1.933c-0.838-0.543-1.744-1.139-2.662-1.716
					c-0.1-0.062-0.363-0.063-0.385-0.016c-0.092,0.191-0.195,0.432-0.152,0.621c0.25,1.104,0.541,2.2,0.816,3.299
					c0.082,0.329,0.166,0.658,0.26,1.035c-5.705,1.436-11.369,2.861-17.102,4.304c-0.338-1.345-0.671-2.668-1.004-3.99
					c-0.042-0.166-0.066-0.341-0.137-0.494c-0.183-0.399-0.557-0.436-0.771-0.062c-0.478,0.834-0.919,1.688-1.402,2.519
					c-0.185,0.317-0.032,0.463,0.196,0.621c1.873,1.296,1.837,3.639,0.695,5.291c-1.231,1.78-3.799,2.322-5.521,1.216
					c-0.728-0.468-1.065-1.188-1.253-2.035c-1.855,0.454-3.21-0.2-4.094-1.822c-0.821-1.507-0.917-3.072,0.131-4.474
					c1.371-1.834,3.285-1.818,5.274-1.229c0.573-0.966,1.138-1.916,1.693-2.852c-5.487-4.934-7.071-10.892-4.742-17.945
					c-0.025-0.021-0.081-0.084-0.149-0.126c-1.002-0.609-0.989-0.592-1.937,0.121c-1.287,0.969-2.694,1.382-4.264,0.746
					c-1.433-0.581-2.421-2.256-2.369-3.998c0.045-1.481,0.55-2.845,2.53-3.407c0.078-0.021,0.146-0.076,0.212-0.112
					c-0.303-2.35,0.7-3.852,2.844-4.286c2.125-0.431,4.377,0.914,4.919,2.937c0.207,0.774,0.124,1.34-0.435,2.885
					c0.422,0.269,0.852,0.542,1.299,0.826c5.123-5.373,11.226-6.969,18.369-4.753c0.242-0.439,0.498-0.902,0.75-1.358
					c-1.943-1.854-2.279-3.164-1.334-5.131c0.74-1.543,2.529-2.473,4.316-2.244c1.516,0.194,2.418,1.023,2.688,2.432
					c0.725,0.052,1.469-0.016,2.139,0.176c1.752,0.505,2.932,2.793,2.561,4.775c-0.355,1.891-2.09,3.172-4.15,3.058
					c-0.318-0.019-0.672-0.008-0.945-0.139c-0.758-0.362-1.133-0.022-1.396,0.637C93.064,112.072,92.99,112.178,92.924,112.297z
					 M91.914,137.581c-0.098-0.384-0.143-0.748-0.279-1.074c-0.463-1.098-0.389-2.032,0.695-2.73
					c0.141-0.089,0.238-0.244,0.352-0.371c4.496-4.975,4.473-12.722-0.051-17.587c-4.447-4.782-11.414-5.775-17.107-2.438
					c-5.563,3.26-8.043,10.268-5.683,16.185c1.654,4.148,4.707,6.776,8.984,7.991c0.428,0.122,0.63,0.315,0.717,0.746
					c0.15,0.744,0.361,1.478,0.557,2.253C84.072,139.555,87.957,138.576,91.914,137.581z"/>
				<path fill="#2F2F2F" d="M72.484,150.349c-0.841,0-1.637-0.226-2.301-0.653c-0.786-0.505-1.151-1.24-1.347-1.873
					c-1.83,0.283-3.237-0.456-4.169-2.165c-0.986-1.811-0.928-3.543,0.17-5.012c0.885-1.185,2.078-1.784,3.548-1.784
					c0.574,0,1.196,0.088,1.893,0.27l1.29-2.174c-5.285-4.919-6.863-10.919-4.692-17.846c-0.229-0.138-0.438-0.256-0.513-0.256
					c-0.077,0-0.358,0.211-0.63,0.416l-0.055,0.041c-1.029,0.774-2.033,1.151-3.069,1.151c-0.558,0-1.124-0.115-1.684-0.342
					c-1.611-0.653-2.738-2.536-2.68-4.476c0.061-2.003,0.946-3.253,2.707-3.817c-0.177-2.385,1.003-4.003,3.278-4.464
					c0.296-0.06,0.602-0.09,0.907-0.09c2.136,0,4.068,1.425,4.594,3.387c0.232,0.868,0.127,1.535-0.312,2.807l0.619,0.394
					c3.65-3.702,7.844-5.579,12.469-5.579c1.826,0,3.754,0.293,5.732,0.872l0.371-0.673c-1.848-1.867-2.158-3.37-1.164-5.438
					c0.746-1.556,2.406-2.562,4.227-2.562c0.201,0,0.404,0.013,0.604,0.038c1.584,0.203,2.623,1.046,3.025,2.446
					c0.096,0.003,0.195,0.005,0.295,0.007c0.521,0.01,1.059,0.021,1.582,0.17c1.98,0.57,3.342,3.069,2.912,5.349
					c-0.4,2.131-2.344,3.591-4.668,3.464c-0.053-0.003-0.105-0.005-0.16-0.008c-0.307-0.012-0.654-0.025-0.975-0.179
					c-0.17-0.082-0.275-0.099-0.334-0.099c-0.053,0-0.193,0-0.381,0.469c-0.008,0.021-0.016,0.04-0.025,0.059
					c5.316,5.065,6.838,11.128,4.521,18.033l2.168,1.305c1.232-1.12,2.412-1.666,3.604-1.666c0.727,0,1.465,0.207,2.191,0.615
					c1.6,0.901,2.363,2.484,2.205,4.577c-0.131,1.724-0.902,2.755-2.633,3.473c0.248,1.1-0.023,2.125-0.793,2.99
					c-0.846,0.951-1.982,1.485-3.287,1.544c-1.391,0.067-2.742-0.496-3.697-1.51c-0.811-0.857-1.221-1.926-1.158-3.007
					c0.027-0.478,0.156-0.921,0.291-1.39c0.027-0.096,0.057-0.193,0.084-0.292l-0.281-0.184c-0.598-0.389-1.213-0.789-1.838-1.185
					c0.18,0.787,0.387,1.601,0.588,2.387c0.07,0.275,0.141,0.55,0.209,0.825l0.383,1.521l-18.072,4.547l-1.127-4.475
					c-0.013-0.051-0.024-0.103-0.035-0.155c-0.011-0.048-0.021-0.094-0.032-0.136c-0.192,0.34-0.383,0.688-0.568,1.027
					c-0.233,0.428-0.475,0.869-0.725,1.302c0.005,0.004,0.011,0.008,0.018,0.012c2.179,1.509,2.049,4.21,0.821,5.986
					C75.53,149.58,74.035,150.349,72.484,150.349z M69.58,146.633l0.109,0.499c0.188,0.853,0.508,1.384,1.035,1.723
					c0.503,0.323,1.111,0.494,1.76,0.494c1.228,0,2.407-0.604,3.079-1.574c1.29-1.865,0.69-3.724-0.568-4.595
					c-0.643-0.444-0.542-0.943-0.344-1.283c0.254-0.438,0.503-0.893,0.743-1.332c0.212-0.39,0.432-0.791,0.657-1.185
					c0.186-0.324,0.479-0.511,0.803-0.511c0.359,0,0.68,0.229,0.856,0.614c0.073,0.159,0.107,0.316,0.138,0.455
					c0.009,0.042,0.019,0.084,0.028,0.125l0.883,3.505l16.133-4.06l-0.139-0.55c-0.07-0.274-0.139-0.548-0.209-0.822
					c-0.207-0.812-0.422-1.653-0.609-2.488c-0.074-0.326,0.045-0.647,0.186-0.945c0.07-0.146,0.229-0.32,0.598-0.32
					c0.115,0,0.332,0.017,0.506,0.126c0.713,0.447,1.41,0.901,2.084,1.341l0.881,0.573l-0.084,0.345
					c-0.057,0.236-0.121,0.459-0.184,0.674c-0.125,0.432-0.232,0.804-0.254,1.169c-0.047,0.804,0.268,1.607,0.887,2.264
					c0.758,0.803,1.828,1.245,2.924,1.196c1.045-0.047,1.914-0.454,2.588-1.21c0.631-0.709,0.785-1.537,0.461-2.463l-0.164-0.471
					l0.469-0.166c1.668-0.591,2.299-1.316,2.408-2.773c0.129-1.702-0.443-2.923-1.699-3.63c-0.582-0.328-1.139-0.487-1.699-0.487
					c-1.021,0-2.033,0.523-3.186,1.648l-0.277,0.27l-3.52-2.119l0.137-0.385c2.434-6.872,0.992-12.635-4.41-17.619l-0.289-0.266
					l0.189-0.343c0.023-0.044,0.049-0.086,0.072-0.127c0.037-0.062,0.07-0.116,0.086-0.159c0.412-1.033,1.133-1.354,2.076-0.903
					c0.135,0.064,0.363,0.073,0.584,0.082c0.059,0.003,0.117,0.005,0.174,0.008c1.803,0.102,3.324-1.017,3.631-2.649
					c0.334-1.771-0.719-3.774-2.207-4.203c-0.395-0.113-0.846-0.122-1.322-0.131c-0.232-0.005-0.473-0.009-0.713-0.026l-0.383-0.027
					l-0.072-0.377c-0.23-1.2-0.971-1.865-2.262-2.03c-0.156-0.021-0.318-0.03-0.477-0.03c-1.416,0-2.752,0.802-3.326,1.994
					c-0.852,1.776-0.564,2.84,1.23,4.553l0.279,0.267l-1.133,2.053l-0.391-0.121c-2.02-0.627-3.98-0.944-5.826-0.944
					c-4.462,0-8.511,1.872-12.032,5.564l-0.283,0.298l-1.984-1.262l0.136-0.377c0.552-1.526,0.589-1.964,0.422-2.585
					c-0.404-1.509-1.964-2.646-3.628-2.646c-0.239,0-0.478,0.023-0.708,0.07c-1.894,0.384-2.718,1.64-2.447,3.732l0.044,0.339
					l-0.301,0.164c-0.012,0.006-0.023,0.014-0.036,0.021c-0.062,0.039-0.156,0.099-0.279,0.133c-1.469,0.417-2.116,1.296-2.166,2.94
					c-0.046,1.538,0.818,3.018,2.057,3.52c1.269,0.515,2.477,0.296,3.775-0.682l0.055-0.041c0.528-0.398,0.819-0.617,1.231-0.617
					c0.373,0,0.688,0.191,1.211,0.51c0.1,0.06,0.174,0.133,0.214,0.172l0.254,0.218l-0.104,0.319
					c-2.275,6.891-0.77,12.587,4.602,17.417l0.306,0.274l-2.102,3.539l-0.373-0.11c-0.758-0.225-1.406-0.333-1.985-0.333
					c-1.169,0-2.042,0.439-2.747,1.383c-0.858,1.148-0.89,2.473-0.093,3.935c0.796,1.46,1.945,1.965,3.537,1.575L69.58,146.633z
					 M79.736,141.161l-0.122-0.485c-0.058-0.231-0.117-0.459-0.177-0.684c-0.143-0.544-0.276-1.057-0.385-1.592
					c-0.045-0.22-0.086-0.285-0.363-0.363c-4.496-1.277-7.629-4.065-9.312-8.287c-2.46-6.168,0.074-13.391,5.895-16.802
					c2.265-1.327,4.811-2.029,7.362-2.029c3.949,0,7.631,1.619,10.365,4.56c4.709,5.064,4.732,13.086,0.055,18.263
					c-0.027,0.03-0.053,0.063-0.08,0.096c-0.092,0.113-0.205,0.254-0.373,0.361c-0.779,0.501-0.926,1.114-0.504,2.114
					c0.111,0.266,0.17,0.538,0.225,0.802c0.025,0.112,0.049,0.228,0.078,0.345l0.123,0.485L79.736,141.161z M82.633,111.919
					c-2.374,0-4.745,0.654-6.856,1.893c-2.592,1.519-4.578,3.944-5.594,6.83c-1.017,2.889-0.973,5.991,0.122,8.737
					c1.562,3.919,4.476,6.508,8.657,7.696c0.618,0.176,0.948,0.523,1.07,1.128c0.102,0.506,0.233,1.006,0.372,1.535
					c0.018,0.069,0.036,0.14,0.055,0.21l10.861-2.733c-0.043-0.193-0.084-0.363-0.146-0.514c-0.611-1.448-0.312-2.574,0.887-3.345
					c0.031-0.021,0.088-0.092,0.135-0.149c0.039-0.046,0.076-0.093,0.115-0.137c4.334-4.795,4.312-12.224-0.045-16.911
					C89.723,113.425,86.301,111.919,82.633,111.919z"/>
			</g>
			<g>
				<path fill-rule="evenodd" clip-rule="evenodd" fill="#D3727A" d="M79.696,135.046c-2.323,0.58-4.319-0.616-4.578-2.591
					c-0.152-1.165,0.322-2.104,1.188-2.814c1.296-1.064,2.767-1.299,4.3-0.576c1.103,0.521,1.748,1.426,1.742,2.684
					c-0.006,1.345-0.719,2.284-1.836,2.942C80.203,134.872,79.851,134.979,79.696,135.046z"/>
				<path fill="#2F2F2F" d="M78.537,135.693c-2.061,0-3.67-1.306-3.915-3.174c-0.165-1.266,0.308-2.395,1.367-3.266
					c0.895-0.733,1.859-1.105,2.869-1.105c0.648,0,1.308,0.156,1.961,0.464c1.314,0.621,2.035,1.735,2.029,3.139
					c-0.006,1.426-0.707,2.56-2.083,3.37c-0.266,0.156-0.549,0.263-0.736,0.332c-0.055,0.021-0.101,0.038-0.136,0.053l-0.076,0.025
					C79.388,135.639,78.957,135.693,78.537,135.693z M78.858,129.148c-0.772,0-1.524,0.295-2.234,0.878
					c-0.79,0.649-1.131,1.445-1.011,2.363c0.181,1.378,1.355,2.304,2.924,2.304c0.328,0,0.665-0.042,1.004-0.124
					c0.039-0.016,0.086-0.033,0.139-0.053c0.164-0.062,0.388-0.146,0.578-0.257c1.065-0.628,1.586-1.45,1.59-2.514
					c0.006-1.021-0.484-1.771-1.456-2.229C79.874,129.272,79.358,129.148,78.858,129.148z"/>
			</g>
			<g>
				<path fill-rule="evenodd" clip-rule="evenodd" fill="#D3727A" d="M88.504,126.088c1.029-0.207,2.025-0.137,2.953,0.418
					c1.59,0.949,1.98,2.938,0.871,4.425c-1.225,1.645-3.566,2.086-5.248,0.991c-1.529-0.996-1.852-2.969-0.73-4.405
					C86.91,126.802,87.643,126.36,88.504,126.088z"/>
				<path fill="#2F2F2F" d="M89.135,133.023c-0.838,0-1.643-0.236-2.328-0.683c-0.855-0.558-1.416-1.399-1.578-2.37
					c-0.162-0.973,0.096-1.954,0.727-2.762c0.588-0.75,1.371-1.272,2.396-1.598l0.053-0.014c1.256-0.252,2.355-0.091,3.311,0.479
					c0.889,0.532,1.486,1.363,1.68,2.34c0.193,0.979-0.041,1.979-0.664,2.813C91.893,132.353,90.549,133.023,89.135,133.023z
					 M88.629,126.573c-0.814,0.262-1.432,0.672-1.885,1.252c-0.457,0.584-0.645,1.288-0.529,1.981
					c0.115,0.69,0.52,1.293,1.139,1.696c0.521,0.34,1.139,0.521,1.781,0.521c1.1,0,2.145-0.521,2.793-1.392
					c0.451-0.605,0.625-1.323,0.486-2.021c-0.139-0.695-0.568-1.291-1.213-1.676C90.461,126.492,89.633,126.376,88.629,126.573z"/>
			</g>
			<g>
				<path fill-rule="evenodd" clip-rule="evenodd" fill="#D3727A" d="M84.232,131.238c1.484,1.551,2.873,3.002,4.316,4.511
					c-2.049,0.516-4.002,1.007-6.098,1.534C83.051,135.249,83.619,133.323,84.232,131.238z"/>
				<path fill="#2F2F2F" d="M81.725,137.981l2.273-7.713l5.508,5.756L81.725,137.981z M84.469,132.207l-1.289,4.378l4.414-1.111
					L84.469,132.207z"/>
			</g>
		</g>
		<path fill="#694C36" d="M62.833,144.316c0,0,20.267,9.333,43.599-1.066l-23.539-1.334l-2.146,1.334l-8.634-0.708L62.833,144.316z"
			/>
		<polygon fill="#5B402D" points="67.653,143.174 64.149,144.064 72.099,147.716 74.299,143.716 72.113,142.542 68.884,142.633 		
			"/>
		<polygon fill="#5B402D" points="82.893,141.916 86.5,147.416 84.633,149.166 80.747,143.25 		"/>
		<polygon fill="#5B402D" points="96.35,143.666 98.898,143.066 101.223,144.074 103.5,146.466 97.299,145.041 		"/>
		<g>
			<polyline fill="#694C36" points="88.549,140.566 90.256,139.142 93.387,139.588 94.549,141.216 92.898,141.916 89,141.916 
				88.549,140.716 			"/>
			<polygon fill="#5B402D" points="88.5,140.529 89,141.983 91.299,140.416 90.398,139.139 			"/>
		</g>
		<polyline fill="#694C36" points="95.16,141.712 95.441,141.238 95.959,141.387 96.15,141.928 95.879,142.161 95.234,142.161 
			95.16,141.762 		"/>
		<g>
			<polyline fill="#694C36" points="95.16,141.712 95.441,141.238 95.959,141.387 96.15,141.928 95.879,142.161 95.234,142.161 
				95.16,141.762 			"/>
			<polygon fill="#5B402D" points="95.152,141.699 95.234,142.183 95.613,141.662 95.465,141.237 			"/>
		</g>
		<g>
			<polyline fill="#694C36" points="75.736,141.712 76.173,141.238 76.977,141.387 77.275,141.928 76.851,142.161 75.851,142.161 
				75.736,141.762 			"/>
			<polygon fill="#5B402D" points="75.722,141.699 75.851,142.183 76.441,141.662 76.21,141.237 			"/>
		</g>
		<g>
			<path fill="#44332C" d="M66.82,152.583c0,0,0.752,23.467,1.516,26c0,0,13.297,9.6,37.297,0c0,0-0.135-28.4-0.801-28.4
				L66.82,152.583z"/>
			<path fill="#2F2F2F" d="M85.299,183.149c-0.002,0-0.002,0-0.002,0c-11.02,0-17.077-4.28-17.137-4.323l-0.082-0.06l-0.029-0.097
				c-0.766-2.542-1.497-25.117-1.528-26.077l-0.009-0.291l38.301-2.418h0.002c0.363,0,0.439,0.318,0.543,1.493
				c0.064,0.741,0.125,1.828,0.182,3.231c0.094,2.358,0.176,5.646,0.242,9.77c0.115,7.021,0.15,14.133,0.15,14.204l0.002,0.204
				l-0.189,0.075C98.631,181.707,91.752,183.149,85.299,183.149z M68.595,178.397c0.761,0.507,6.59,4.151,16.702,4.152
				c0,0,0,0,0.002,0c6.318,0,13.057-1.402,20.033-4.17c-0.053-10.485-0.273-26.06-0.684-27.886l-37.519,2.37
				C67.218,155.535,67.907,175.65,68.595,178.397z"/>
		</g>
		<g>
			<path fill="#60473A" d="M61.366,143.383c0,0-1.2,5.867,1.866,10c0,0,21.067,8.4,44.934-2c0,0,2.066-3.866,0.199-9.2
				C108.365,142.183,82.432,150.85,61.366,143.383z"/>
			<path fill="#2F2F2F" d="M83.039,156.888c-11.692,0-19.837-3.193-19.918-3.226l-0.078-0.032l-0.051-0.068
				c-3.111-4.192-1.971-9.994-1.92-10.238l0.069-0.338l0.324,0.115c5.647,2.001,12.179,3.016,19.411,3.016
				c14.602,0,27.268-4.176,27.393-4.218l0.281-0.094l0.098,0.279c1.889,5.396-0.131,9.277-0.219,9.44l-0.049,0.092l-0.096,0.042
				C100.322,155.128,91.828,156.888,83.039,156.888z M63.422,153.135c0.861,0.326,8.659,3.152,19.617,3.152
				c8.668,0,17.047-1.728,24.906-5.135c0.277-0.592,1.723-4.033,0.23-8.594c-1.965,0.618-13.816,4.158-27.299,4.158
				c-7.158,0-13.64-0.986-19.273-2.933C61.414,145.07,60.947,149.726,63.422,153.135z"/>
		</g>
		<path fill="#513E34" d="M61.573,143.666c0,0,11.125,11.89,21.126,12.521c0,0-14.234-0.236-19.467-2.804
			C63.232,153.383,61.134,151.116,61.573,143.666z"/>
		<path fill="#3D2E2B" d="M67.299,154.753c0,0,0.54,23.282,1,23.694c0,0,9.07,5.014,16.759,4.401
			C85.059,182.849,72.899,168.99,67.299,154.753z"/>
		<g>
			<path fill="#C47881" d="M101.76,172.849c0,0,4.709-0.663,6.672-0.521c1.963,0.142,4.004,1.18,4.004,1.18
				s9.486,5.215,10.467,4.865c0,0-4.795,2.519-6.566,2.434C116.336,180.807,106.383,181.267,101.76,172.849z"/>
			<path fill="#2F2F2F" d="M116.061,181.312c-1.707,0-10.441-0.396-14.738-8.223l-0.348-0.635l0.717-0.101
				c0.158-0.022,3.9-0.546,6.1-0.546c0.254,0,0.482,0.008,0.676,0.021c2.041,0.147,4.107,1.188,4.195,1.232
				c3.404,1.872,9.145,4.829,10.119,4.829c0.002-0.001-0.016,0.001-0.047,0.012l0.4,0.914c-0.486,0.255-4.801,2.492-6.709,2.492
				c-0.031,0-0.061,0-0.092-0.002C116.293,181.309,116.199,181.312,116.061,181.312z M102.57,173.246
				c4.139,6.716,11.93,7.065,13.49,7.065c0.158,0,0.246-0.004,0.252-0.004l0.023-0.002l0.023,0.002
				c0.021,0.001,0.045,0.001,0.066,0.001l0,0c1.076,0,3.422-1.004,5.029-1.771c-2.705-1.016-8.027-3.913-9.262-4.592
				c-0.004-0.002-1.963-0.986-3.797-1.119c-0.172-0.012-0.375-0.019-0.605-0.019C106.234,172.808,103.789,173.091,102.57,173.246z"
				/>
		</g>
		<g>
			<path fill="#D3727A" d="M108.816,174.87c0,0,5.73,3.338,5.127,7.374c0,0-15.102,3.842-19.479-1.914c0,0-4.787-4.131-6.365-4.263
				c0,0,7.277-3.057,9.818-3.312C100.678,172.478,104.643,172.705,108.816,174.87z"/>
			<path fill="#2F2F2F" d="M103.961,184c-4.836,0-8.152-1.118-9.861-3.325c-1.812-1.558-5.018-4.023-6.041-4.109l-2.033-0.169
				l1.881-0.79c0.299-0.126,7.375-3.089,9.961-3.349c0.643-0.064,1.299-0.098,1.953-0.098c3.223,0,6.328,0.763,9.227,2.267
				l0.021,0.012c0.246,0.143,6.016,3.558,5.369,7.88l-0.049,0.329l-0.322,0.082C113.861,182.781,109.012,184,103.961,184z
				 M89.449,176.056c1.021,0.527,2.707,1.622,5.342,3.896l0.039,0.034l0.031,0.042c1.5,1.973,4.562,2.973,9.1,2.973
				c4.178,0,8.33-0.885,9.521-1.159c0.189-3.446-4.662-6.386-4.908-6.533c-2.752-1.425-5.697-2.147-8.754-2.147
				c-0.621,0-1.244,0.031-1.854,0.093C96.127,173.438,91.592,175.193,89.449,176.056z"/>
		</g>
	</g>
</g>
<g id="Flower">
</g>
</svg>
